<?xml version="1.0" encoding="UTF-8"?>
<svg id="Calque_1" data-name="Calque 1" xmlns="http://www.w3.org/2000/svg" viewBox="0 0 190 190">
  <defs>
    <style>
      .cls-1 {
        fill: #f82f02;
      }
    </style>
  </defs>
  <g id="_Répétition_radiale_" data-name="&amp;lt;Répétition radiale&amp;gt;">
    <path class="cls-1" d="M57.19,136.65l-16.21,9.48-8.84-15.11,14.53-8.5c5.4-3.16,12.01-3.43,17.65-.72h0c5.64,2.71,9.57,8.03,10.48,14.22l2.46,16.65-17.33,2.56-2.75-18.59Z"/>
  </g>
  <g id="_Répétition_radiale_-2" data-name="&amp;lt;Répétition radiale&amp;gt;">
    <path class="cls-1" d="M37.52,89.85l-17.52-6.77,6.3-16.34,15.7,6.06c5.83,2.25,10.17,7.26,11.57,13.35h0c1.4,6.1-.32,12.49-4.58,17.06l-11.48,12.31-12.81-11.95,12.82-13.74Z"/>
  </g>
  <g id="_Répétition_radiale_-3" data-name="&amp;lt;Répétition radiale&amp;gt;">
    <path class="cls-1" d="M61.85,45.3l-5.63-17.92,16.7-5.26,5.05,16.05c1.88,5.97.67,12.48-3.22,17.37h0c-3.89,4.9-9.96,7.54-16.2,7.05l-16.79-1.3,1.36-17.46,18.73,1.46Z"/>
  </g>
  <g id="_Répétition_radiale_-4" data-name="&amp;lt;Répétition radiale&amp;gt;">
    <path class="cls-1" d="M111.85,36.54l10.49-15.58,14.52,9.78-9.4,13.96c-3.49,5.19-9.34,8.3-15.59,8.31h0c-6.25,0-12.11-3.09-15.61-8.26l-9.45-13.94,14.5-9.83,10.54,15.56Z"/>
  </g>
  <g id="_Répétition_radiale_-5" data-name="&amp;lt;Répétition radiale&amp;gt;">
    <path class="cls-1" d="M149.87,70.17l18.72-1.51,1.41,17.45-16.78,1.35c-6.23.5-12.31-2.12-16.22-7.01h0c-3.91-4.88-5.13-11.39-3.27-17.36l5.01-16.07,16.72,5.21-5.59,17.94Z"/>
  </g>
  <g id="_Répétition_radiale_-6" data-name="&amp;lt;Répétition radiale&amp;gt;">
    <path class="cls-1" d="M147.28,120.86l12.85,13.7-12.77,11.98-11.52-12.27c-4.28-4.56-6.02-10.95-4.63-17.05h0c1.38-6.1,5.7-11.11,11.53-13.38l15.69-6.11,6.35,16.32-17.51,6.81Z"/>
  </g>
  <g id="_Répétition_radiale_-7" data-name="&amp;lt;Répétition radiale&amp;gt;">
    <path class="cls-1" d="M106.03,150.45l-2.7,18.59-17.33-2.51,2.42-16.66c.9-6.19,4.81-11.53,10.44-14.25h0c5.63-2.72,12.25-2.47,17.65.67l14.56,8.46-8.8,15.14-16.24-9.44Z"/>
  </g>
</svg>