<?xml version="1.0" encoding="UTF-8"?>
<svg id="Calque_1" data-name="Calque 1" xmlns="http://www.w3.org/2000/svg" viewBox="0 0 760 160">
  <defs>
    <style>
      .cls-1 {
        fill: #fff;
      }
    </style>
  </defs>
  <g>
    <g id="_Répétition_radiale_" data-name="&amp;lt;Répétition radiale&amp;gt;">
      <path class="cls-1" d="M48.71,111.66l-12.33,7.21-6.72-11.49,11.04-6.46c4.1-2.4,9.13-2.61,13.42-.55h0c4.29,2.06,7.27,6.11,7.97,10.81l1.87,12.66-13.17,1.95-2.09-14.13Z"/>
    </g>
    <g id="_Répétition_radiale_-2" data-name="&amp;lt;Répétition radiale&amp;gt;">
      <path class="cls-1" d="M33.76,76.08l-13.32-5.14,4.79-12.42,11.94,4.61c4.44,1.71,7.73,5.52,8.8,10.15h0c1.06,4.63-.24,9.49-3.48,12.97l-8.73,9.36-9.74-9.08,9.75-10.44Z"/>
    </g>
    <g id="_Répétition_radiale_-3" data-name="&amp;lt;Répétition radiale&amp;gt;">
      <path class="cls-1" d="M52.26,42.21l-4.28-13.62,12.7-4,3.84,12.21c1.43,4.54.51,9.48-2.45,13.21h0c-2.96,3.72-7.57,5.73-12.31,5.36l-12.76-.99,1.03-13.28,14.24,1.11Z"/>
    </g>
    <g id="_Répétition_radiale_-4" data-name="&amp;lt;Répétition radiale&amp;gt;">
      <path class="cls-1" d="M90.27,35.56l7.98-11.84,11.04,7.43-7.15,10.61c-2.66,3.94-7.1,6.31-11.85,6.32h0c-4.75,0-9.2-2.35-11.87-6.28l-7.18-10.59,11.02-7.47,8.01,11.83Z"/>
    </g>
    <g id="_Répétition_radiale_-5" data-name="&amp;lt;Répétition radiale&amp;gt;">
      <path class="cls-1" d="M119.17,61.12l14.23-1.15,1.07,13.27-12.75,1.03c-4.74.38-9.36-1.61-12.33-5.33h0c-2.97-3.71-3.9-8.66-2.49-13.2l3.81-12.22,12.71,3.96-4.25,13.64Z"/>
    </g>
    <g id="_Répétition_radiale_-6" data-name="&amp;lt;Répétition radiale&amp;gt;">
      <path class="cls-1" d="M117.21,99.66l9.77,10.41-9.71,9.11-8.75-9.33c-3.25-3.47-4.57-8.32-3.52-12.96h0c1.05-4.64,4.34-8.45,8.77-10.18l11.93-4.64,4.83,12.41-13.31,5.18Z"/>
    </g>
    <g id="_Répétition_radiale_-7" data-name="&amp;lt;Répétition radiale&amp;gt;">
      <path class="cls-1" d="M85.85,122.16l-2.05,14.13-13.17-1.91,1.84-12.66c.68-4.71,3.66-8.77,7.94-10.84h0c4.28-2.07,9.31-1.88,13.42.51l11.07,6.43-6.69,11.51-12.35-7.18Z"/>
    </g>
  </g>
  <g>
    <path class="cls-1" d="M220.18,44.3c-4.98-1.64-10.85-2.45-17.61-2.45h-25.84v76.31h13.95v-25.84h11.88c6.76,0,12.63-.83,17.61-2.51,4.98-1.67,8.83-4.36,11.55-8.07,2.73-3.71,4.09-8.61,4.09-14.72s-1.36-11.1-4.09-14.77c-2.72-3.67-6.58-6.32-11.55-7.96ZM219.09,75.2c-1.49,1.89-3.63,3.18-6.43,3.87-2.8.69-6.16,1.04-10.08,1.04h-11.88v-26.16h11.88c3.92,0,7.28.35,10.08,1.04,2.8.69,4.94,1.98,6.43,3.87,1.49,1.89,2.23,4.62,2.23,8.18s-.75,6.29-2.23,8.18Z"/>
    <path class="cls-1" d="M261.55,63.38c-.68,1.1-1.24,2.23-1.69,3.38v-9.65h-13.74v61.05h13.74v-30.96c0-4.87.74-8.61,2.23-11.23,1.49-2.62,3.72-4.45,6.7-5.51,2.98-1.05,6.61-1.58,10.9-1.58v-13.52c-4.87,0-8.76.76-11.66,2.29-2.91,1.53-5.07,3.43-6.49,5.72Z"/>
    <path class="cls-1" d="M331.64,59.51c-4.65-2.76-10.14-4.14-16.46-4.14s-11.72,1.38-16.41,4.14c-4.69,2.76-8.32,6.58-10.9,11.45-2.58,4.87-3.87,10.47-3.87,16.79s1.29,11.81,3.87,16.68c2.58,4.87,6.21,8.67,10.9,11.39,4.69,2.73,10.16,4.09,16.41,4.09s11.81-1.36,16.46-4.09c4.65-2.73,8.27-6.52,10.85-11.39,2.58-4.87,3.87-10.43,3.87-16.68s-1.29-11.92-3.87-16.79c-2.58-4.87-6.2-8.68-10.85-11.45ZM330.44,97.93c-1.31,3.02-3.23,5.38-5.78,7.09-2.54,1.71-5.67,2.56-9.38,2.56s-6.94-.85-9.48-2.56c-2.54-1.71-4.47-4.07-5.78-7.09-1.31-3.02-1.96-6.41-1.96-10.19s.65-7.3,1.96-10.36c1.31-3.05,3.23-5.43,5.78-7.14,2.54-1.71,5.7-2.56,9.48-2.56s6.83.86,9.38,2.56c2.54,1.71,4.47,4.09,5.78,7.14,1.31,3.05,1.96,6.5,1.96,10.36s-.65,7.18-1.96,10.19Z"/>
    <path class="cls-1" d="M434.77,57.76c-2.8-1.6-6.05-2.4-9.76-2.4-3.92,0-7.23.69-9.92,2.07-2.69,1.38-4.89,3.14-6.6,5.29-1.26,1.58-2.26,3.21-3,4.89-.22-.68-.45-1.34-.7-1.95-1.56-3.67-3.76-6.3-6.6-7.9-2.83-1.6-6.1-2.4-9.81-2.4s-7.03.69-9.54,2.07c-2.51,1.38-4.49,3.14-5.94,5.29-.95,1.4-1.7,2.83-2.29,4.31v-9.92h-13.74v61.05h13.74v-30.09c0-4.87.73-8.83,2.18-11.88,1.45-3.05,3.25-5.3,5.4-6.76,2.14-1.45,4.31-2.18,6.49-2.18,2.69,0,4.65.64,5.89,1.91,1.24,1.27,2.03,3.02,2.4,5.23.36,2.22.54,4.74.54,7.58v36.19h13.63v-30.09c0-4.87.73-8.83,2.18-11.88,1.45-3.05,3.27-5.3,5.45-6.76,2.18-1.45,4.36-2.18,6.54-2.18,2.69,0,4.63.64,5.83,1.91,1.2,1.27,1.98,3.02,2.34,5.23.36,2.22.54,4.74.54,7.58v36.19h13.74v-37.61c0-6.25-.8-11.21-2.4-14.88-1.6-3.67-3.8-6.3-6.6-7.9Z"/>
    <path class="cls-1" d="M503.55,59.51c-4.07-2.76-8.98-4.14-14.72-4.14-4.36,0-8.07.87-11.12,2.62-3.05,1.74-5.52,4.18-7.41,7.3v-8.18h-13.74v75.45h13.74v-22.36c1.74,2.98,4.14,5.34,7.19,7.09,3.05,1.74,6.83,2.62,11.34,2.62,5.74,0,10.65-1.36,14.72-4.09,4.07-2.73,7.21-6.52,9.43-11.39,2.22-4.87,3.32-10.43,3.32-16.68s-1.11-11.92-3.32-16.79c-2.22-4.87-5.36-8.68-9.43-11.45ZM500.45,97.93c-1.2,3.02-2.96,5.38-5.29,7.09-2.33,1.71-5.16,2.56-8.5,2.56-3.71,0-6.76-.87-9.16-2.62-2.4-1.74-4.2-4.12-5.4-7.14-1.2-3.01-1.8-6.38-1.8-10.08s.6-7.18,1.8-10.19c1.2-3.01,3-5.41,5.4-7.19,2.4-1.78,5.45-2.67,9.16-2.67,3.34,0,6.18.86,8.5,2.56,2.32,1.71,4.09,4.09,5.29,7.14,1.2,3.05,1.8,6.5,1.8,10.36s-.6,7.18-1.8,10.19Z"/>
    <path class="cls-1" d="M546.23,105.02c-1.02-.98-1.53-2.49-1.53-4.52v-31.72h10.36v-11.66h-10.36v-15.26h-13.74v15.26h-8.07v11.66h8.07v31.72c0,5.67,1.65,10.03,4.96,13.08,3.31,3.05,8.23,4.58,14.77,4.58h6.1v-11.66h-6c-2.04,0-3.56-.49-4.58-1.47Z"/>
    <polygon class="cls-1" points="638.78 73.68 605.1 73.68 605.1 41.85 591.14 41.85 591.14 118.15 605.1 118.15 605.1 85.89 638.78 85.89 638.78 118.15 652.63 118.15 652.63 41.85 638.78 41.85 638.78 73.68"/>
    <path class="cls-1" d="M737.11,64.47c-1.64-4.83-4.05-9.07-7.25-12.7-3.2-3.64-7.14-6.49-11.84-8.56-4.68-2.07-10.04-3.11-16.07-3.11s-11.5,1.04-16.19,3.11c-4.69,2.07-8.63,4.92-11.83,8.56-3.2,3.63-5.62,7.87-7.26,12.7-1.64,4.83-2.45,9.98-2.45,15.43,0,7.41,1.45,14.13,4.36,20.16,2.91,6.03,7.18,10.85,12.81,14.45,3.93,2.51,8.46,4.15,13.58,4.9v10.41l28.12,2.73v-13.18l-9.64-.94c3.28-.9,6.29-2.19,8.99-3.92,5.59-3.6,9.85-8.41,12.75-14.45,2.91-6.03,4.36-12.75,4.36-20.16,0-5.45-.81-10.6-2.45-15.43ZM723.53,89.97c-.87,3.24-2.25,6.14-4.14,8.73-1.9,2.58-4.28,4.63-7.14,6.15-2.87,1.53-6.27,2.3-10.19,2.3s-7.47-.77-10.41-2.3c-2.94-1.53-5.36-3.57-7.26-6.15-1.89-2.58-3.3-5.49-4.25-8.73-.94-3.23-1.42-6.59-1.42-10.08s.47-6.75,1.42-9.98c.94-3.23,2.36-6.13,4.25-8.67,1.9-2.54,4.31-4.57,7.26-6.1,2.94-1.53,6.41-2.3,10.41-2.3s7.32.75,10.19,2.24c2.87,1.49,5.25,3.53,7.14,6.1,1.89,2.58,3.27,5.5,4.14,8.73.88,3.23,1.31,6.56,1.31,9.98s-.43,6.85-1.31,10.08Z"/>
  </g>
</svg>