<?xml version="1.0" encoding="UTF-8"?>
<svg id="Calque_1" data-name="Calque 1" xmlns="http://www.w3.org/2000/svg" viewBox="0 0 585 300">
  <defs>
    <style>
      .cls-1 {
        fill: #fff;
      }
    </style>
  </defs>
  <g>
    <g id="_Répétition_radiale_" data-name="&amp;lt;Répétition radiale&amp;gt;">
      <path class="cls-1" d="M253.69,135.47l-16.64,9.73-9.08-15.51,14.91-8.72c5.54-3.24,12.33-3.52,18.12-.74h0c5.79,2.78,9.82,8.25,10.76,14.6l2.53,17.09-17.78,2.63-2.82-19.08Z"/>
    </g>
    <g id="_Répétition_radiale_-2" data-name="&amp;lt;Répétition radiale&amp;gt;">
      <path class="cls-1" d="M233.51,87.44l-17.98-6.94,6.47-16.77,16.11,6.22c5.99,2.31,10.44,7.45,11.88,13.7h0c1.44,6.26-.33,12.82-4.7,17.51l-11.79,12.64-13.14-12.26,13.16-14.1Z"/>
    </g>
    <g id="_Répétition_radiale_-3" data-name="&amp;lt;Répétition radiale&amp;gt;">
      <path class="cls-1" d="M258.47,41.71l-5.78-18.39,17.14-5.4,5.18,16.48c1.93,6.12.69,12.8-3.31,17.83h0c-3.99,5.02-10.22,7.74-16.62,7.24l-17.23-1.34,1.39-17.92,19.23,1.5Z"/>
    </g>
    <g id="_Répétition_radiale_-4" data-name="&amp;lt;Répétition radiale&amp;gt;">
      <path class="cls-1" d="M309.79,32.73l10.77-15.99,14.91,10.04-9.65,14.33c-3.59,5.32-9.58,8.52-16,8.53h0c-6.42,0-12.42-3.17-16.03-8.48l-9.7-14.3,14.88-10.09,10.82,15.97Z"/>
    </g>
    <g id="_Répétition_radiale_-5" data-name="&amp;lt;Répétition radiale&amp;gt;">
      <path class="cls-1" d="M348.81,67.24l19.21-1.55,1.45,17.91-17.22,1.39c-6.4.52-12.64-2.18-16.65-7.19h0c-4.01-5.01-5.27-11.69-3.36-17.82l5.14-16.5,17.16,5.35-5.74,18.41Z"/>
    </g>
    <g id="_Répétition_radiale_-6" data-name="&amp;lt;Répétition radiale&amp;gt;">
      <path class="cls-1" d="M346.16,119.27l13.19,14.06-13.1,12.3-11.82-12.6c-4.39-4.68-6.17-11.24-4.75-17.5h0c1.42-6.26,5.85-11.41,11.84-13.74l16.1-6.27,6.52,16.75-17.97,6.99Z"/>
    </g>
    <g id="_Répétition_radiale_-7" data-name="&amp;lt;Répétition radiale&amp;gt;">
      <path class="cls-1" d="M303.82,149.63l-2.77,19.08-17.79-2.57,2.48-17.09c.92-6.35,4.94-11.83,10.72-14.63h0c5.78-2.79,12.57-2.54,18.12.69l14.94,8.68-9.03,15.54-16.67-9.69Z"/>
    </g>
  </g>
  <g>
    <path class="cls-1" d="M60.15,197.09c-4.86-1.6-10.59-2.39-17.19-2.39h-25.23v74.51h13.62v-25.23h11.6c6.6,0,12.33-.82,17.19-2.45,4.86-1.63,8.62-4.26,11.28-7.88,2.66-3.62,3.99-8.41,3.99-14.37s-1.33-10.84-3.99-14.42c-2.66-3.58-6.42-6.17-11.28-7.77ZM59.08,227.26c-1.46,1.85-3.55,3.1-6.28,3.78-2.73.67-6.01,1.01-9.85,1.01h-11.6v-25.55h11.6c3.83,0,7.11.34,9.85,1.01,2.73.67,4.82,1.93,6.28,3.78,1.45,1.85,2.18,4.51,2.18,7.98s-.73,6.14-2.18,7.98Z"/>
    <path class="cls-1" d="M100.54,215.71c-.67,1.08-1.21,2.18-1.65,3.3v-9.42h-13.41v59.61h13.41v-30.23c0-4.75.73-8.41,2.18-10.96,1.45-2.55,3.64-4.35,6.55-5.38,2.91-1.03,6.46-1.54,10.64-1.54v-13.2c-4.75,0-8.55.75-11.39,2.24-2.84,1.49-4.95,3.35-6.33,5.59Z"/>
    <path class="cls-1" d="M168.98,211.94c-4.54-2.7-9.9-4.04-16.07-4.04s-11.44,1.35-16.02,4.04c-4.58,2.7-8.13,6.42-10.64,11.18-2.52,4.76-3.78,10.22-3.78,16.39s1.26,11.53,3.78,16.29c2.52,4.75,6.07,8.46,10.64,11.12,4.58,2.66,9.91,3.99,16.02,3.99s11.53-1.33,16.07-3.99c4.54-2.66,8.07-6.37,10.59-11.12,2.52-4.75,3.78-10.18,3.78-16.29s-1.26-11.64-3.78-16.39c-2.52-4.75-6.05-8.48-10.59-11.18ZM167.81,249.46c-1.28,2.95-3.16,5.25-5.64,6.92-2.48,1.67-5.54,2.5-9.15,2.5s-6.78-.83-9.26-2.5c-2.48-1.67-4.36-3.97-5.64-6.92-1.28-2.94-1.92-6.26-1.92-9.95s.64-7.13,1.92-10.11c1.28-2.98,3.16-5.3,5.64-6.97,2.48-1.67,5.57-2.5,9.26-2.5s6.67.83,9.15,2.5c2.48,1.67,4.36,3.99,5.64,6.97,1.28,2.98,1.92,6.35,1.92,10.11s-.64,7.01-1.92,9.95Z"/>
    <path class="cls-1" d="M269.67,210.23c-2.73-1.56-5.91-2.34-9.53-2.34-3.83,0-7.06.68-9.69,2.02-2.63,1.35-4.77,3.07-6.44,5.16-1.23,1.54-2.2,3.13-2.93,4.77-.21-.66-.43-1.31-.69-1.9-1.53-3.58-3.67-6.16-6.44-7.72-2.77-1.56-5.96-2.34-9.58-2.34s-6.87.68-9.31,2.02c-2.45,1.35-4.38,3.07-5.8,5.16-.93,1.36-1.66,2.77-2.24,4.21v-9.69h-13.41v59.61h13.41v-29.38c0-4.75.71-8.62,2.13-11.6,1.42-2.98,3.18-5.18,5.27-6.6,2.09-1.42,4.2-2.13,6.33-2.13,2.62,0,4.54.62,5.75,1.86,1.21,1.24,1.99,2.95,2.34,5.11.35,2.17.53,4.63.53,7.4v35.34h13.3v-29.38c0-4.75.71-8.62,2.13-11.6,1.42-2.98,3.19-5.18,5.32-6.6,2.13-1.42,4.26-2.13,6.39-2.13,2.62,0,4.52.62,5.69,1.86,1.17,1.24,1.93,2.95,2.29,5.11.35,2.17.53,4.63.53,7.4v35.34h13.41v-36.72c0-6.1-.78-10.95-2.34-14.53-1.56-3.58-3.71-6.16-6.44-7.72Z"/>
    <path class="cls-1" d="M336.83,211.94c-3.97-2.7-8.76-4.04-14.37-4.04-4.26,0-7.88.85-10.86,2.55-2.98,1.7-5.39,4.08-7.24,7.13v-7.98h-13.41v73.67h13.41v-21.83c1.7,2.91,4.04,5.22,7.03,6.92,2.98,1.7,6.67,2.55,11.07,2.55,5.6,0,10.39-1.33,14.37-3.99,3.97-2.66,7.04-6.37,9.21-11.12,2.16-4.75,3.25-10.18,3.25-16.29s-1.08-11.64-3.25-16.39c-2.17-4.75-5.23-8.48-9.21-11.18ZM333.8,249.46c-1.17,2.95-2.89,5.25-5.16,6.92-2.27,1.67-5.04,2.5-8.3,2.5-3.62,0-6.6-.85-8.94-2.55-2.34-1.7-4.1-4.03-5.27-6.97-1.17-2.94-1.76-6.23-1.76-9.85s.58-7.01,1.76-9.95c1.17-2.94,2.93-5.29,5.27-7.03,2.34-1.74,5.32-2.61,8.94-2.61,3.26,0,6.03.83,8.3,2.5,2.27,1.67,3.99,3.99,5.16,6.97,1.17,2.98,1.76,6.35,1.76,10.11s-.59,7.01-1.76,9.95Z"/>
    <path class="cls-1" d="M378.5,256.38c-1-.96-1.49-2.43-1.49-4.42v-30.97h10.11v-11.39h-10.11v-14.9h-13.41v14.9h-7.88v11.39h7.88v30.97c0,5.53,1.61,9.79,4.84,12.77,3.23,2.98,8.04,4.47,14.42,4.47h5.96v-11.39h-5.85c-1.99,0-3.48-.48-4.47-1.44Z"/>
    <polygon class="cls-1" points="468.87 225.77 435.98 225.77 435.98 194.69 422.35 194.69 422.35 269.2 435.98 269.2 435.98 237.69 468.87 237.69 468.87 269.2 482.39 269.2 482.39 194.69 468.87 194.69 468.87 225.77"/>
    <path class="cls-1" d="M564.88,216.78c-1.6-4.72-3.96-8.86-7.08-12.4-3.13-3.55-6.98-6.33-11.56-8.36-4.57-2.02-9.8-3.04-15.7-3.04s-11.23,1.01-15.8,3.04c-4.58,2.02-8.43,4.81-11.55,8.36-3.13,3.54-5.49,7.68-7.08,12.4-1.6,4.72-2.39,9.74-2.39,15.06,0,7.24,1.42,13.8,4.26,19.69,2.84,5.89,7.01,10.59,12.51,14.1,3.84,2.45,8.26,4.05,13.26,4.79v10.16l27.46,2.67v-12.87l-9.41-.91c3.2-.88,6.14-2.14,8.78-3.83,5.46-3.52,9.61-8.21,12.45-14.1,2.84-5.89,4.26-12.45,4.26-19.69,0-5.32-.79-10.35-2.39-15.06ZM551.62,241.68c-.85,3.16-2.2,6-4.04,8.52-1.85,2.52-4.17,4.52-6.98,6.01-2.8,1.49-6.12,2.24-9.95,2.24s-7.29-.75-10.16-2.24c-2.87-1.49-5.23-3.49-7.08-6.01-1.84-2.52-3.23-5.36-4.15-8.52-.92-3.15-1.38-6.43-1.38-9.84s.46-6.59,1.38-9.74c.92-3.15,2.3-5.98,4.15-8.47,1.85-2.48,4.21-4.46,7.08-5.95,2.87-1.49,6.26-2.24,10.16-2.24s7.15.73,9.95,2.19c2.8,1.45,5.12,3.44,6.98,5.95,1.84,2.52,3.19,5.37,4.04,8.52.86,3.15,1.28,6.41,1.28,9.74s-.42,6.69-1.28,9.84Z"/>
  </g>
</svg>