<?xml version="1.0" encoding="UTF-8"?>
<svg id="Calque_1" data-name="Calque 1" xmlns="http://www.w3.org/2000/svg" viewBox="0 0 580 125">
  <path d="M59.47,21.78c-4.82-1.58-10.51-2.38-17.06-2.38h-25.03v73.92h13.52v-25.03h11.51c6.55,0,12.23-.81,17.06-2.43,4.82-1.62,8.55-4.22,11.19-7.81,2.64-3.59,3.96-8.34,3.96-14.26s-1.32-10.75-3.96-14.31c-2.64-3.55-6.37-6.12-11.19-7.71ZM58.41,51.72c-1.44,1.83-3.52,3.08-6.23,3.75-2.71.67-5.97,1-9.77,1h-11.51v-25.35h11.51c3.8,0,7.06.33,9.77,1,2.71.67,4.79,1.92,6.23,3.75,1.44,1.83,2.16,4.47,2.16,7.92s-.72,6.09-2.16,7.92Z"/>
  <path d="M99.55,40.27c-.66,1.07-1.2,2.16-1.64,3.27v-9.34h-13.31v59.14h13.31v-29.99c0-4.72.72-8.34,2.16-10.88,1.44-2.53,3.61-4.31,6.5-5.33,2.89-1.02,6.41-1.53,10.56-1.53v-13.1c-4.72,0-8.48.74-11.3,2.22-2.82,1.48-4.91,3.33-6.28,5.54Z"/>
  <path d="M167.45,36.52c-4.51-2.67-9.82-4.01-15.95-4.01s-11.35,1.34-15.89,4.01c-4.54,2.68-8.06,6.37-10.56,11.09-2.5,4.72-3.75,10.14-3.75,16.26s1.25,11.44,3.75,16.16c2.5,4.72,6.02,8.4,10.56,11.04,4.54,2.64,9.84,3.96,15.89,3.96s11.44-1.32,15.95-3.96c4.5-2.64,8.01-6.32,10.51-11.04,2.5-4.72,3.75-10.1,3.75-16.16s-1.25-11.55-3.75-16.26c-2.5-4.72-6-8.41-10.51-11.09ZM166.29,73.74c-1.27,2.92-3.13,5.21-5.6,6.86-2.47,1.66-5.49,2.48-9.08,2.48s-6.72-.83-9.19-2.48c-2.47-1.65-4.33-3.94-5.6-6.86-1.27-2.92-1.9-6.21-1.9-9.87s.63-7.08,1.9-10.03c1.27-2.96,3.13-5.26,5.6-6.92,2.46-1.65,5.53-2.48,9.19-2.48s6.62.83,9.08,2.48c2.46,1.66,4.33,3.96,5.6,6.92,1.27,2.96,1.9,6.3,1.9,10.03s-.63,6.95-1.9,9.87Z"/>
  <path d="M267.35,34.83c-2.71-1.55-5.86-2.32-9.45-2.32-3.8,0-7.01.67-9.61,2.01-2.61,1.34-4.73,3.05-6.39,5.12-1.22,1.53-2.19,3.11-2.91,4.74-.21-.66-.43-1.3-.68-1.88-1.51-3.55-3.64-6.11-6.39-7.66-2.74-1.55-5.91-2.32-9.5-2.32s-6.81.67-9.24,2.01c-2.43,1.34-4.35,3.05-5.76,5.12-.92,1.35-1.64,2.75-2.22,4.17v-9.61h-13.31v59.14h13.31v-29.15c0-4.72.7-8.55,2.11-11.51,1.41-2.96,3.15-5.14,5.23-6.55,2.08-1.41,4.17-2.11,6.28-2.11,2.6,0,4.5.62,5.7,1.85,1.2,1.23,1.97,2.92,2.32,5.07.35,2.15.53,4.59.53,7.34v35.06h13.2v-29.15c0-4.72.7-8.55,2.11-11.51,1.41-2.96,3.17-5.14,5.28-6.55,2.11-1.41,4.22-2.11,6.34-2.11,2.6,0,4.49.62,5.65,1.85,1.16,1.23,1.92,2.92,2.27,5.07.35,2.15.53,4.59.53,7.34v35.06h13.31v-36.43c0-6.05-.78-10.86-2.32-14.42-1.55-3.55-3.68-6.11-6.39-7.66Z"/>
  <path d="M333.99,36.52c-3.94-2.67-8.7-4.01-14.26-4.01-4.22,0-7.81.84-10.77,2.53-2.96,1.69-5.35,4.05-7.18,7.08v-7.92h-13.31v73.09h13.31v-21.66c1.69,2.89,4.01,5.17,6.97,6.86,2.96,1.69,6.62,2.53,10.98,2.53,5.56,0,10.31-1.32,14.26-3.96,3.94-2.64,6.99-6.32,9.13-11.04,2.15-4.72,3.22-10.1,3.22-16.16s-1.07-11.55-3.22-16.26c-2.15-4.72-5.19-8.41-9.13-11.09ZM330.98,73.74c-1.16,2.92-2.87,5.21-5.12,6.86-2.25,1.66-5,2.48-8.24,2.48-3.59,0-6.55-.84-8.87-2.53s-4.07-3.99-5.23-6.92c-1.16-2.92-1.74-6.18-1.74-9.77s.58-6.95,1.74-9.87c1.16-2.92,2.9-5.24,5.23-6.97,2.32-1.72,5.28-2.59,8.87-2.59,3.24,0,5.98.83,8.24,2.48,2.25,1.66,3.96,3.96,5.12,6.92s1.74,6.3,1.74,10.03-.58,6.95-1.74,9.87Z"/>
  <path d="M375.33,80.61c-.99-.95-1.48-2.41-1.48-4.38v-30.73h10.03v-11.3h-10.03v-14.78h-13.31v14.78h-7.81v11.3h7.81v30.73c0,5.49,1.6,9.72,4.81,12.67,3.2,2.96,7.97,4.44,14.31,4.44h5.91v-11.3h-5.81c-1.97,0-3.45-.48-4.43-1.43Z"/>
  <polygon points="464.99 50.25 432.35 50.25 432.35 19.41 418.84 19.41 418.84 93.33 432.35 93.33 432.35 62.07 464.99 62.07 464.99 93.33 478.4 93.33 478.4 19.41 464.99 19.41 464.99 50.25"/>
  <path d="M560.24,41.32c-1.59-4.68-3.93-8.79-7.02-12.3-3.1-3.52-6.92-6.28-11.47-8.29-4.54-2.01-9.73-3.01-15.57-3.01s-11.14,1-15.68,3.01c-4.54,2.01-8.36,4.77-11.46,8.29-3.1,3.51-5.44,7.62-7.03,12.3-1.59,4.68-2.38,9.66-2.38,14.94,0,7.18,1.41,13.69,4.22,19.53,2.82,5.85,6.96,10.51,12.41,13.99,3.81,2.43,8.19,4.02,13.15,4.75v10.08l27.24,2.65v-12.77l-9.34-.91c3.18-.87,6.09-2.12,8.71-3.8,5.41-3.49,9.54-8.15,12.35-13.99,2.82-5.85,4.22-12.35,4.22-19.53,0-5.28-.79-10.26-2.38-14.94ZM547.09,66.03c-.84,3.14-2.18,5.95-4.01,8.45-1.84,2.5-4.14,4.48-6.92,5.96s-6.07,2.22-9.87,2.22-7.23-.74-10.09-2.22c-2.85-1.48-5.19-3.46-7.03-5.96-1.83-2.5-3.2-5.32-4.11-8.45-.91-3.13-1.37-6.38-1.37-9.76s.46-6.54,1.37-9.66,2.29-5.93,4.11-8.4c1.84-2.46,4.18-4.43,7.03-5.91,2.85-1.48,6.21-2.22,10.09-2.22s7.09.73,9.87,2.17c2.78,1.44,5.08,3.42,6.92,5.91,1.83,2.5,3.16,5.32,4.01,8.45.85,3.13,1.27,6.36,1.27,9.66s-.42,6.63-1.27,9.76Z"/>
</svg>